# xmcd
#
# Track frame offsets:
#	150
#	16112
#	34212
#	52962
#	70000
#	87147
#	100015
#	125177
#	144735
#	164795
#	178010
#	194530
#	217615
#	232110
#
# Disc length: 3529 seconds
# Revision: 0
# Processed by: cddbd v1.5.2PL0 Copyright (c) Steve Scherf et al.
# Submitted via: dBpowerAMP V12.0
#
DISCID=c30dc70e
DTITLE=Robert Cray Band - Heavy Picks. The Collection
DYEAR=1999
DGENRE=Blues
TTITLE0=Phone Booth
TTITLE1=Forecast (Calls For Pain)
TTITLE2=Smoking Gun
TTITLE3=Playin' In The Dirt
TTITLE4=Don't Be Afraid Of The Dark
TTITLE5=Too Many Cooks
TTITLE6=The Dream
TTITLE7=Right Next Door (Because Of Me)
TTITLE8=Consequences
TTITLE9=Bad Influence
TTITLE10=I Guess I Showed Her
TTITLE11=I Shiver
TTITLE12=Trick Or Treat
TTITLE13=I Was Warned
EXTD=
EXTT0=
EXTT1=
EXTT2=
EXTT3=
EXTT4=
EXTT5=
EXTT6=
EXTT7=
EXTT8=
EXTT9=
EXTT10=
EXTT11=
EXTT12=
EXTT13=
PLAYORDER=
